<?xml version="1.0" encoding="UTF-8" standalone="no"?>
<!-- Created with Inkscape (http://www.inkscape.org/) -->

<svg
   width="512"
   height="512"
   viewBox="0 0 135.46666 135.46667"
   version="1.1"
   id="svg12438"
   inkscape:version="1.1.2 (0a00cf5339, 2022-02-04, custom)"
   sodipodi:docname="BridgedSplit.svg"
   xmlns:inkscape="http://www.inkscape.org/namespaces/inkscape"
   xmlns:sodipodi="http://sodipodi.sourceforge.net/DTD/sodipodi-0.dtd"
   xmlns="http://www.w3.org/2000/svg"
   xmlns:svg="http://www.w3.org/2000/svg">
  <sodipodi:namedview
     id="namedview12440"
     pagecolor="#ffffff"
     bordercolor="#666666"
     borderopacity="1.0"
     inkscape:pageshadow="2"
     inkscape:pageopacity="0.0"
     inkscape:pagecheckerboard="0"
     inkscape:document-units="px"
     showgrid="false"
     units="px"
     inkscape:snap-global="false"
     inkscape:snap-object-midpoints="true"
     inkscape:zoom="1.2227284"
     inkscape:cx="389.29332"
     inkscape:cy="222.86225"
     inkscape:window-width="1920"
     inkscape:window-height="1023"
     inkscape:window-x="0"
     inkscape:window-y="0"
     inkscape:window-maximized="1"
     inkscape:current-layer="layer1" />
  <defs
     id="defs12435">
    <inkscape:path-effect
       effect="bspline"
       id="path-effect13578"
       is_visible="true"
       lpeversion="1"
       weight="33.333333"
       steps="2"
       helper_size="0"
       apply_no_weight="true"
       apply_with_weight="true"
       only_selected="false" />
    <inkscape:path-effect
       effect="bspline"
       id="path-effect13574"
       is_visible="true"
       lpeversion="1"
       weight="33.333333"
       steps="2"
       helper_size="0"
       apply_no_weight="true"
       apply_with_weight="true"
       only_selected="false" />
    <inkscape:path-effect
       effect="bspline"
       id="path-effect13297"
       is_visible="true"
       lpeversion="1"
       weight="33.333333"
       steps="2"
       helper_size="0"
       apply_no_weight="true"
       apply_with_weight="true"
       only_selected="false" />
    <inkscape:path-effect
       effect="bspline"
       id="path-effect13293"
       is_visible="true"
       lpeversion="1"
       weight="33.333333"
       steps="2"
       helper_size="0"
       apply_no_weight="true"
       apply_with_weight="true"
       only_selected="false" />
    <inkscape:path-effect
       effect="bspline"
       id="path-effect12776"
       is_visible="true"
       lpeversion="1"
       weight="33.333333"
       steps="2"
       helper_size="0"
       apply_no_weight="true"
       apply_with_weight="true"
       only_selected="false" />
    <inkscape:path-effect
       effect="bspline"
       id="path-effect12481"
       is_visible="true"
       lpeversion="1"
       weight="33.333333"
       steps="2"
       helper_size="0"
       apply_no_weight="true"
       apply_with_weight="true"
       only_selected="false" />
    <inkscape:path-effect
       effect="bspline"
       id="path-effect12477"
       is_visible="true"
       lpeversion="1"
       weight="33.333333"
       steps="2"
       helper_size="0"
       apply_no_weight="true"
       apply_with_weight="true"
       only_selected="false" />
  </defs>
  <g
     inkscape:label="Layer 1"
     inkscape:groupmode="layer"
     id="layer1">
    <path
       style="fill:#808080;stroke:none;stroke-width:0.264583px;stroke-linecap:butt;stroke-linejoin:miter;stroke-opacity:1;fill-opacity:1"
       d="m 46.222602,2.4912917 80.167018,0.1870451 4.91517,77.6938502 -6.66778,27.379223 -20.23906,14.10664 L 57.867126,132.97537 4.3769615,92.096451 29.704882,56.967678 37.113207,11.31051 Z"
       id="path12811" />
    <path
       style="color:#000000;fill:#ffcc00;-inkscape-stroke:none;fill-opacity:1;stroke:#000000;stroke-opacity:1"
       d="m 31.902344,42.382812 -1.199219,4.060547 c 7.409908,2.189602 14.686776,4.353589 21.115234,7.71875 6.428491,3.365179 12.271363,8.066917 18.214844,12.867188 l 2.660156,-3.292969 C 66.749878,58.936057 60.706214,54.037181 53.78125,50.412109 46.856254,46.787021 39.312251,44.572414 31.902344,42.382812 Z"
       id="path13572" />
    <path
       style="color:#000000;fill:#ffcc00;-inkscape-stroke:none;fill-opacity:1;stroke:#000000;stroke-opacity:1"
       d="m 90.316406,80.300781 -1.996094,3.734375 c 6.173438,3.299224 12.158808,6.519114 17.189458,11.212891 5.03069,4.693812 9.37399,11.130313 13.77539,17.697263 l 3.51562,-2.35742 c -4.4014,-6.56695 -8.86028,-13.262782 -14.4043,-18.435546 -5.54404,-5.172797 -11.906636,-8.552339 -18.080074,-11.851563 z"
       id="path13576" />
    <path
       style="fill:#ff0000;stroke:#000000;stroke-width:1.05833332;stroke-linecap:butt;stroke-linejoin:miter;stroke-opacity:1;stroke-miterlimit:4;stroke-dasharray:none"
       d="M 28.993917,53.479665 45.245858,49.192894 33.882861,33.686271"
       id="path13861" />
    <path
       style="color:#000000;fill:#c0c0c0;stroke-linecap:round;-inkscape-stroke:none;fill-opacity:1;stroke:#000000;stroke-opacity:1"
       d="M 44.744141,0.9765625 C 39.878748,5.719486 34.555154,10.922903 32.589844,19.900391 c -1.96531,8.977485 -0.745119,20.63646 -5.09961,32.68164 -4.354488,12.045173 -14.49821,25.093283 -24.7792965,38.208985 a 2.1166649,2.1166649 0 0 0 0.359375,2.970703 2.1166649,2.1166649 0 0 0 2.9726562,-0.359375 C 16.324055,80.286642 26.742023,67.101727 31.470703,54.021484 36.19938,40.941249 35.024382,28.582159 36.726562,20.806641 38.428743,13.031124 42.833826,8.750736 47.699219,4.0078125 a 2.1166649,2.1166649 0 0 0 0.03906,-2.9941406 2.1166649,2.1166649 0 0 0 -2.99414,-0.0371094 z"
       id="path12475" />
    <circle
       style="fill:#55d400;fill-opacity:1;stroke:#000012;stroke-width:1.05833;stroke-linecap:round;stroke-miterlimit:4;stroke-dasharray:none;stroke-opacity:1"
       id="path6160"
       cx="31.303354"
       cy="44.412743"
       r="6.3499999" />
    <path
       style="fill:#ff0000;stroke:#000000;stroke-width:1.05833;stroke-linecap:butt;stroke-linejoin:miter;stroke-miterlimit:4;stroke-dasharray:none;stroke-opacity:1"
       d="M 65.818446,74.817613 61.082194,58.3395 74.857692,57.28785"
       id="path13896"
       sodipodi:nodetypes="ccc" />
    <path
       style="fill:#ff0000;stroke:#000000;stroke-width:1.05833332;stroke-linecap:butt;stroke-linejoin:miter;stroke-opacity:1;stroke-miterlimit:4;stroke-dasharray:none"
       d="m 110.9264,116.19803 4.38125,-14.09615 10.6988,2.02791"
       id="path14211" />
    <path
       style="color:#000000;fill:#c0c0c0;stroke-linecap:round;-inkscape-stroke:none;fill-opacity:1;stroke:#000000;stroke-opacity:1"
       d="m 126.19141,0.5703125 a 2.1166649,2.1166649 0 0 0 -1.90821,2.3066406 c 2.39821,25.4342749 4.78582,50.8423839 4.6875,70.0332029 -0.0491,9.595411 -0.73457,17.566869 -2.85937,24.091797 -2.12481,6.524927 -5.60458,11.631867 -11.56836,15.884767 -11.92754,8.50578 -34.46296,13.33278 -57.10547,18.01562 a 2.1166649,2.1166649 0 0 0 -1.642578,2.50196 2.1166649,2.1166649 0 0 0 2.5,1.64453 c 22.64251,-4.68285 45.393818,-9.2223 58.705078,-18.71485 6.65562,-4.74626 10.78354,-10.79526 13.13672,-18.02148 2.35317,-7.226224 3.0163,-15.601308 3.0664,-25.380859 0.10021,-19.559105 -2.30882,-45.016897 -4.70703,-70.4511722 a 2.1166649,2.1166649 0 0 0 -2.30468,-1.9101563 z"
       id="path12479" />
    <path
       style="fill:#ff0000;stroke:#000000;stroke-width:1.05833332;stroke-linecap:butt;stroke-linejoin:miter;stroke-opacity:1;stroke-miterlimit:4;stroke-dasharray:none"
       d="M 82.947877,91.266617 99.20077,87.480859 93.674347,72.832165"
       id="path14063" />
    <g
       id="path13113"
       transform="rotate(25.272318)">
      <path
         style="color:#000000;fill:#404040;stroke-width:4.23333;stroke-linecap:round;-inkscape-stroke:none"
         d="M 116.60286,31.438278 A 12.6079,27.068594 0 0 1 103.99496,58.506872 12.6079,27.068594 0 0 1 91.387057,31.438278 12.6079,27.068594 0 0 1 103.99496,4.3696842 12.6079,27.068594 0 0 1 116.60286,31.438278 Z"
         id="path859" />
      <path
         style="color:#000000;fill:#c0c0c0;stroke-linecap:round;-inkscape-stroke:none;fill-opacity:1;stroke:#000000;stroke-opacity:1"
         d="m 103.99414,2.2539063 c -4.709554,0 -8.378418,3.8784012 -10.833984,9.1503907 -2.455566,5.271989 -3.890625,12.292017 -3.890625,20.033203 0,7.741186 1.435059,14.763167 3.890625,20.035156 2.455566,5.27199 6.12443,9.150391 10.833984,9.150391 4.70956,0 8.37842,-3.878401 10.83399,-9.150391 2.45556,-5.271989 3.89062,-12.29397 3.89062,-20.035156 0,-7.741186 -1.43506,-14.761214 -3.89062,-20.033203 -2.45557,-5.2719895 -6.12443,-9.1503907 -10.83399,-9.1503907 z m 0,4.2324218 c 2.25359,0 4.89046,2.1801733 6.99805,6.7050779 2.10759,4.524905 3.49414,11.037723 3.49414,18.246094 0,7.208371 -1.38655,13.723142 -3.49414,18.248047 -2.10759,4.524905 -4.74446,6.705078 -6.99805,6.705078 -2.25359,0 -4.888501,-2.180173 -6.996093,-6.705078 -2.107592,-4.524905 -3.494141,-11.039676 -3.494141,-18.248047 0,-7.208371 1.386549,-13.721189 3.494141,-18.246094 2.107592,-4.5249046 4.742503,-6.7050779 6.996093,-6.7050779 z"
         id="path861" />
    </g>
    <circle
       style="fill:#55d400;fill-opacity:1;stroke:#000012;stroke-width:1.05833;stroke-linecap:round;stroke-miterlimit:4;stroke-dasharray:none;stroke-opacity:1"
       id="path6160-2"
       cx="71.36348"
       cy="65.382805"
       r="6.3499999" />
    <circle
       style="fill:#55d400;fill-opacity:1;stroke:#000012;stroke-width:1.05833;stroke-linecap:round;stroke-miterlimit:4;stroke-dasharray:none;stroke-opacity:1"
       id="path6160-7"
       cx="89.318863"
       cy="82.168205"
       r="6.3499999" />
    <circle
       style="fill:#55d400;fill-opacity:1;stroke:#000012;stroke-width:1.05833;stroke-linecap:round;stroke-miterlimit:4;stroke-dasharray:none;stroke-opacity:1"
       id="path6160-0"
       cx="121.04307"
       cy="111.76716"
       r="6.3499999" />
    <path
       style="color:#000000;fill:#ff0000;fill-opacity:1;stroke:#000000;stroke-width:1.05833;stroke-linecap:round;stroke-miterlimit:4;stroke-dasharray:none;stroke-opacity:1"
       d="m 50.464323,48.089453 c -1.558117,-0.80569 -3.474355,-0.195222 -4.279297,1.363281 -0.804366,1.557643 -0.194081,3.472434 1.363282,4.277344 l 4.689973,1.930078 3.172527,1.85586 c 1.509064,0.893222 3.456506,0.3939 4.349609,-1.115235 0.893222,-1.509064 0.393901,-3.456506 -1.115234,-4.349609 l -3.33073,-1.947656 z"
       id="path14399"
       sodipodi:nodetypes="ccccccccc" />
    <circle
       style="fill:#00ccff;fill-opacity:1;stroke:#000000;stroke-width:1.05833;stroke-miterlimit:4;stroke-dasharray:none;stroke-opacity:1"
       id="path2604-5"
       cx="53.160923"
       cy="52.716686"
       r="4.2333331" />
    <path
       style="color:#000000;fill:#ff0000;fill-opacity:1;stroke:#000000;stroke-width:1.05833;stroke-linecap:round;stroke-miterlimit:4;stroke-dasharray:none;stroke-opacity:1"
       d="m 104.93138,88.376692 c -1.39153,-1.066694 -3.38429,-0.803499 -4.45117,0.587891 -1.066694,1.391533 -0.803497,3.384294 0.58789,4.451172 l 4.64479,3.314714 2.81862,3.092058 c 1.19665,1.282333 3.20639,1.351423 4.48829,0.1543 1.28176,-1.197209 1.34997,-3.206922 0.15234,-4.488285 l -3.17605,-3.476823 z"
       id="path15056"
       sodipodi:nodetypes="ccccccccc" />
    <circle
       style="fill:#00ccff;fill-opacity:1;stroke:#000000;stroke-width:1.05833;stroke-miterlimit:4;stroke-dasharray:none;stroke-opacity:1"
       id="path2604-5-9"
       cx="106.9641"
       cy="94.019814"
       r="4.2333331" />
  </g>
</svg>
