<?xml version="1.0" encoding="UTF-8" standalone="no"?>
<!-- Created with Inkscape (http://www.inkscape.org/) -->

<svg
   width="512"
   height="512"
   viewBox="0 0 135.46666 135.46667"
   version="1.1"
   id="svg12438"
   inkscape:version="1.1.2 (0a00cf5339, 2022-02-04, custom)"
   sodipodi:docname="Bridge.svg"
   xmlns:inkscape="http://www.inkscape.org/namespaces/inkscape"
   xmlns:sodipodi="http://sodipodi.sourceforge.net/DTD/sodipodi-0.dtd"
   xmlns="http://www.w3.org/2000/svg"
   xmlns:svg="http://www.w3.org/2000/svg">
  <sodipodi:namedview
     id="namedview12440"
     pagecolor="#ffffff"
     bordercolor="#666666"
     borderopacity="1.0"
     inkscape:pageshadow="2"
     inkscape:pageopacity="0.0"
     inkscape:pagecheckerboard="0"
     inkscape:document-units="px"
     showgrid="false"
     units="px"
     inkscape:snap-global="false"
     inkscape:snap-object-midpoints="true"
     inkscape:zoom="0.99718821"
     inkscape:cx="203.5724"
     inkscape:cy="243.18378"
     inkscape:window-width="1920"
     inkscape:window-height="1023"
     inkscape:window-x="0"
     inkscape:window-y="0"
     inkscape:window-maximized="1"
     inkscape:current-layer="layer1" />
  <defs
     id="defs12435">
    <inkscape:path-effect
       effect="bspline"
       id="path-effect13578"
       is_visible="true"
       lpeversion="1"
       weight="33.333333"
       steps="2"
       helper_size="0"
       apply_no_weight="true"
       apply_with_weight="true"
       only_selected="false" />
    <inkscape:path-effect
       effect="bspline"
       id="path-effect13574"
       is_visible="true"
       lpeversion="1"
       weight="33.333333"
       steps="2"
       helper_size="0"
       apply_no_weight="true"
       apply_with_weight="true"
       only_selected="false" />
    <inkscape:path-effect
       effect="bspline"
       id="path-effect13297"
       is_visible="true"
       lpeversion="1"
       weight="33.333333"
       steps="2"
       helper_size="0"
       apply_no_weight="true"
       apply_with_weight="true"
       only_selected="false" />
    <inkscape:path-effect
       effect="bspline"
       id="path-effect13293"
       is_visible="true"
       lpeversion="1"
       weight="33.333333"
       steps="2"
       helper_size="0"
       apply_no_weight="true"
       apply_with_weight="true"
       only_selected="false" />
    <inkscape:path-effect
       effect="bspline"
       id="path-effect12776"
       is_visible="true"
       lpeversion="1"
       weight="33.333333"
       steps="2"
       helper_size="0"
       apply_no_weight="true"
       apply_with_weight="true"
       only_selected="false" />
    <inkscape:path-effect
       effect="bspline"
       id="path-effect12481"
       is_visible="true"
       lpeversion="1"
       weight="33.333333"
       steps="2"
       helper_size="0"
       apply_no_weight="true"
       apply_with_weight="true"
       only_selected="false" />
    <inkscape:path-effect
       effect="bspline"
       id="path-effect12477"
       is_visible="true"
       lpeversion="1"
       weight="33.333333"
       steps="2"
       helper_size="0"
       apply_no_weight="true"
       apply_with_weight="true"
       only_selected="false" />
  </defs>
  <g
     inkscape:label="Layer 1"
     inkscape:groupmode="layer"
     id="layer1">
    <path
       style="fill:#808080;stroke:none;stroke-width:0.264583px;stroke-linecap:butt;stroke-linejoin:miter;stroke-opacity:1;fill-opacity:1"
       d="m 46.222602,2.4912917 80.167018,0.1870451 4.91517,77.6938502 -6.66778,27.379223 -20.23906,14.10664 L 57.867126,132.97537 4.3769615,92.096451 29.704882,56.967678 37.113207,11.31051 Z"
       id="path12811" />
    <path
       style="color:#000000;fill:#c0c0c0;stroke-linecap:round;-inkscape-stroke:none;fill-opacity:1;stroke:#000000;stroke-opacity:1"
       d="m 126.19141,0.5703125 a 2.1166649,2.1166649 0 0 0 -1.90821,2.3066406 c 2.39821,25.4342749 4.78582,50.8423839 4.6875,70.0332029 -0.0491,9.595411 -0.73457,17.566869 -2.85937,24.091797 -2.12481,6.524927 -5.60458,11.631867 -11.56836,15.884767 -11.92754,8.50578 -34.46296,13.33278 -57.10547,18.01562 a 2.1166649,2.1166649 0 0 0 -1.642578,2.50196 2.1166649,2.1166649 0 0 0 2.5,1.64453 c 22.64251,-4.68285 45.393818,-9.2223 58.705078,-18.71485 6.65562,-4.74626 10.78354,-10.79526 13.13672,-18.02148 2.35317,-7.226224 3.0163,-15.601308 3.0664,-25.380859 0.10021,-19.559105 -2.30882,-45.016897 -4.70703,-70.4511722 a 2.1166649,2.1166649 0 0 0 -2.30468,-1.9101563 z"
       id="path12479" />
    <path
       style="color:#000000;fill:#ffcc00;fill-opacity:1;stroke:#000000;stroke-opacity:1;-inkscape-stroke:none"
       d="m 31.902344,42.382812 -1.199219,4.060547 c 7.409908,2.189602 14.686776,4.353589 21.115234,7.71875 6.428491,3.365179 23.91303,17.591917 29.856511,22.392188 l 2.660156,-3.292969 C 78.391545,68.461057 60.706214,54.037181 53.78125,50.412109 46.856254,46.787021 39.312251,44.572414 31.902344,42.382812 Z"
       id="path13572"
       sodipodi:nodetypes="ccsccsc" />
    <path
       style="fill:#ff0000;stroke:#000000;stroke-width:1.05833332;stroke-linecap:butt;stroke-linejoin:miter;stroke-opacity:1;stroke-miterlimit:4;stroke-dasharray:none"
       d="M 28.993917,53.479665 45.245858,49.192894 33.882861,33.686271"
       id="path13861" />
    <path
       style="color:#000000;fill:#c0c0c0;stroke-linecap:round;-inkscape-stroke:none;fill-opacity:1;stroke:#000000;stroke-opacity:1"
       d="M 44.744141,0.9765625 C 39.878748,5.719486 34.555154,10.922903 32.589844,19.900391 c -1.96531,8.977485 -0.745119,20.63646 -5.09961,32.68164 -4.354488,12.045173 -14.49821,25.093283 -24.7792965,38.208985 a 2.1166649,2.1166649 0 0 0 0.359375,2.970703 2.1166649,2.1166649 0 0 0 2.9726562,-0.359375 C 16.324055,80.286642 26.742023,67.101727 31.470703,54.021484 36.19938,40.941249 35.024382,28.582159 36.726562,20.806641 38.428743,13.031124 42.833826,8.750736 47.699219,4.0078125 a 2.1166649,2.1166649 0 0 0 0.03906,-2.9941406 2.1166649,2.1166649 0 0 0 -2.99414,-0.0371094 z"
       id="path12475" />
    <circle
       style="fill:#55d400;fill-opacity:1;stroke:#000012;stroke-width:1.05833;stroke-linecap:round;stroke-miterlimit:4;stroke-dasharray:none;stroke-opacity:1"
       id="path6160"
       cx="31.303354"
       cy="44.412743"
       r="6.3499999" />
    <path
       style="fill:#ff0000;stroke:#000000;stroke-width:1.05833;stroke-linecap:butt;stroke-linejoin:miter;stroke-miterlimit:4;stroke-dasharray:none;stroke-opacity:1"
       d="M 83.810124,88.046788 79.073872,71.568675 92.84937,70.517025"
       id="path13896"
       sodipodi:nodetypes="ccc" />
    <g
       id="path13113"
       transform="rotate(25.272318,-20.508645,46.740661)">
      <path
         style="color:#000000;fill:#404040;stroke-width:4.23333;stroke-linecap:round;-inkscape-stroke:none"
         d="M 116.60286,31.438278 A 12.6079,27.068594 0 0 1 103.99496,58.506872 12.6079,27.068594 0 0 1 91.387057,31.438278 12.6079,27.068594 0 0 1 103.99496,4.3696842 12.6079,27.068594 0 0 1 116.60286,31.438278 Z"
         id="path852" />
      <path
         style="color:#000000;fill:#c0c0c0;fill-opacity:1;stroke:#000000;stroke-linecap:round;stroke-opacity:1;-inkscape-stroke:none"
         d="m 103.99414,2.2539063 c -4.709554,0 -8.378418,3.8784012 -10.833984,9.1503907 -2.455566,5.271989 -3.890625,12.292017 -3.890625,20.033203 0,7.741186 1.435059,14.763167 3.890625,20.035156 2.455566,5.27199 6.12443,9.150391 10.833984,9.150391 4.70956,0 8.37842,-3.878401 10.83399,-9.150391 2.45556,-5.271989 3.89062,-12.29397 3.89062,-20.035156 0,-7.741186 -1.43506,-14.761214 -3.89062,-20.033203 -2.45557,-5.2719895 -6.12443,-9.1503907 -10.83399,-9.1503907 z m 0,4.2324218 c 2.25359,0 4.89046,2.1801733 6.99805,6.7050779 2.10759,4.524905 3.49414,11.037723 3.49414,18.246094 0,7.208371 -1.38655,13.723142 -3.49414,18.248047 -2.10759,4.524905 -4.74446,6.705078 -6.99805,6.705078 -2.25359,0 -4.888501,-2.180173 -6.996093,-6.705078 -2.107592,-4.524905 -3.494141,-11.039676 -3.494141,-18.248047 0,-7.208371 1.386549,-13.721189 3.494141,-18.246094 2.107592,-4.5249046 4.742503,-6.7050779 6.996093,-6.7050779 z"
         id="path854" />
    </g>
    <circle
       style="fill:#55d400;fill-opacity:1;stroke:#000012;stroke-width:1.05833;stroke-linecap:round;stroke-miterlimit:4;stroke-dasharray:none;stroke-opacity:1"
       id="path6160-2"
       cx="89.355164"
       cy="78.611984"
       r="6.3499999" />
    <path
       style="color:#000000;fill:#ff0000;fill-opacity:1;stroke:#000000;stroke-width:1.05833;stroke-linecap:round;stroke-miterlimit:4;stroke-dasharray:none;stroke-opacity:1"
       d="m 63.271424,55.037473 c -1.330406,-1.143191 -3.335763,-0.99093 -4.478314,0.340024 -1.141794,1.33025 -0.989377,3.334157 0.340475,4.476414 l 4.118689,2.9593 2.659227,2.537253 c 1.262495,1.217057 3.272592,1.180141 4.489549,-0.08245 1.217056,-1.262495 1.180142,-3.272592 -0.08245,-4.489549 l -2.792006,-2.663048 z"
       id="path14399"
       sodipodi:nodetypes="ccccccccc" />
    <circle
       style="fill:#00ccff;fill-opacity:1;stroke:#000000;stroke-width:1.05833;stroke-miterlimit:4;stroke-dasharray:none;stroke-opacity:1"
       id="path2604-5"
       cx="76.951874"
       cy="43.595821"
       r="4.2333331"
       transform="rotate(13.328666)" />
  </g>
</svg>
