<?xml version="1.0" encoding="UTF-8" standalone="no"?>
<!-- Created with Inkscape (http://www.inkscape.org/) -->

<svg
   width="512"
   height="512"
   viewBox="0 0 135.46666 135.46667"
   version="1.1"
   id="svg5163"
   inkscape:version="1.1.2 (0a00cf5339, 2022-02-04, custom)"
   sodipodi:docname="Inwards.svg"
   xmlns:inkscape="http://www.inkscape.org/namespaces/inkscape"
   xmlns:sodipodi="http://sodipodi.sourceforge.net/DTD/sodipodi-0.dtd"
   xmlns="http://www.w3.org/2000/svg"
   xmlns:svg="http://www.w3.org/2000/svg">
  <sodipodi:namedview
     id="namedview5165"
     pagecolor="#ffffff"
     bordercolor="#666666"
     borderopacity="1.0"
     inkscape:pageshadow="2"
     inkscape:pageopacity="0.0"
     inkscape:pagecheckerboard="0"
     inkscape:document-units="px"
     showgrid="false"
     units="px"
     inkscape:snap-global="true"
     inkscape:zoom="1.2113373"
     inkscape:cx="331.03909"
     inkscape:cy="273.66449"
     inkscape:window-width="1920"
     inkscape:window-height="1023"
     inkscape:window-x="0"
     inkscape:window-y="0"
     inkscape:window-maximized="1"
     inkscape:current-layer="layer1" />
  <defs
     id="defs5160">
    <inkscape:path-effect
       effect="bspline"
       id="path-effect9079"
       is_visible="true"
       lpeversion="1"
       weight="33.333333"
       steps="2"
       helper_size="0"
       apply_no_weight="true"
       apply_with_weight="true"
       only_selected="false" />
    <inkscape:path-effect
       effect="bspline"
       id="path-effect8727"
       is_visible="true"
       lpeversion="1"
       weight="33.333333"
       steps="2"
       helper_size="0"
       apply_no_weight="true"
       apply_with_weight="true"
       only_selected="false" />
    <inkscape:path-effect
       effect="bspline"
       id="path-effect8408"
       is_visible="true"
       lpeversion="1"
       weight="33.333333"
       steps="2"
       helper_size="0"
       apply_no_weight="true"
       apply_with_weight="true"
       only_selected="false" />
    <inkscape:path-effect
       effect="bspline"
       id="path-effect7891"
       is_visible="true"
       lpeversion="1"
       weight="33.333333"
       steps="2"
       helper_size="0"
       apply_no_weight="true"
       apply_with_weight="true"
       only_selected="false" />
    <inkscape:path-effect
       effect="bspline"
       id="path-effect7821"
       is_visible="true"
       lpeversion="1"
       weight="33.333333"
       steps="2"
       helper_size="0"
       apply_no_weight="true"
       apply_with_weight="true"
       only_selected="false" />
    <inkscape:path-effect
       effect="bspline"
       id="path-effect5765"
       is_visible="true"
       lpeversion="1"
       weight="33.333333"
       steps="2"
       helper_size="0"
       apply_no_weight="true"
       apply_with_weight="true"
       only_selected="false" />
    <inkscape:path-effect
       effect="bspline"
       id="path-effect5202"
       is_visible="true"
       lpeversion="1"
       weight="33.333333"
       steps="2"
       helper_size="0"
       apply_no_weight="true"
       apply_with_weight="true"
       only_selected="false" />
  </defs>
  <g
     inkscape:label="Layer 1"
     inkscape:groupmode="layer"
     id="layer1">
    <path
       style="fill:none;stroke:#808080;stroke-width:0.529167;stroke-linecap:butt;stroke-linejoin:miter;stroke-miterlimit:4;stroke-dasharray:none;stroke-opacity:1"
       d="M 120.60697,6.7907214 11.828517,130.26897"
       id="path5544" />
    <path
       style="fill:#808080;fill-opacity:1;stroke:none;stroke-width:0.264583px;stroke-linecap:butt;stroke-linejoin:miter;stroke-opacity:1"
       d="m 120.60697,6.7907214 6.10837,121.7865386 -114.886823,1.69171 v 0"
       id="path5204" />
    <path
       style="color:#000000;fill:#808080;stroke-width:4.23333;-inkscape-stroke:none"
       d="M 11.828517,130.26897 C 15.218873,101.97752 18.609257,73.685827 29.859177,53.364419 41.109098,33.04301 60.2177,20.692644 76.652483,14.258791 93.087266,7.8249377 106.84711,7.3078299 120.60697,6.7907214"
       id="path848" />
    <path
       style="fill:#ff2a2a;stroke:#000000;stroke-width:1.05833332;stroke-linecap:butt;stroke-linejoin:miter;stroke-opacity:1;stroke-miterlimit:4;stroke-dasharray:none"
       d="M 33.007395,49.45222 45.238201,42.945618 48.802072,37.590854 55.417031,25.999103 42.103497,37.636928 Z"
       id="path6821" />
    <path
       style="color:#000000;fill:#c0c0c0;stroke:#000000;stroke-opacity:1;-inkscape-stroke:none;fill-opacity:1"
       d="M 120.52734,4.6757812 C 106.7675,5.1928892 92.653223,5.7211008 75.880859,12.287109 59.108482,18.853123 39.57362,31.447829 28.007812,52.339844 16.441994,73.231879 13.116915,101.72615 9.7265625,130.01758 l 4.2031255,0.5039 C 17.32004,102.23006 20.776938,74.139413 31.710937,54.388672 42.644948,34.63791 61.326673,22.532148 77.423828,16.230469 93.520997,9.9287838 106.9257,9.423358 120.68555,8.90625 Z"
       id="path850" />
    <path
       style="fill:#ff0000;fill-opacity:1;stroke:#000000;stroke-width:1.05833;stroke-linecap:butt;stroke-linejoin:miter;stroke-miterlimit:4;stroke-dasharray:none;stroke-opacity:1"
       d="m 79.572978,113.51711 -12.359697,5.67988 3.217579,-13.42923"
       id="path2814"
       sodipodi:nodetypes="ccc" />
    <path
       style="color:#000000;fill:#ffcc00;stroke-linecap:round;-inkscape-stroke:none;stroke:#000000;stroke-opacity:1"
       d="m 41.951172,35.525391 a 2.1166649,2.1166649 0 0 0 -1.449219,0.726562 2.1166649,2.1166649 0 0 0 0.216797,2.986328 c 8.230934,7.119161 16.614414,14.383441 27.751953,20.126953 5.568759,2.871751 11.66222,5.300257 16.416016,7.94336 4.753795,2.643103 7.867836,5.406325 8.458984,8.445312 0.59115,3.038993 -1.200192,7.776927 -4.769531,13.208985 -3.56934,5.432057 -8.700175,11.507209 -13.873047,17.617189 a 2.1166649,2.1166649 0 0 0 0.248047,2.98242 2.1166649,2.1166649 0 0 0 2.982422,-0.24805 C 83.106466,103.20447 88.32214,97.059691 92.115234,91.287109 95.908328,85.514528 98.495973,80.065427 97.5,74.945312 96.504027,69.825192 92.065141,66.457077 86.943359,63.609375 81.821578,60.761673 75.717098,58.338296 70.410156,55.601562 59.796293,50.128104 51.719215,43.154317 43.488281,36.035156 a 2.1166649,2.1166649 0 0 0 -1.537109,-0.509765 z"
       id="path5763" />
    <path
       style="color:#000000;fill:#ff0000;stroke-linecap:round;stroke:#310000;stroke-opacity:1;stroke-width:1.05833332;stroke-miterlimit:4;stroke-dasharray:none"
       d="m 83.576172,95.601562 a 3.175,3.175 0 0 0 -2.144531,1.140625 l -7.564454,9.187503 a 3.175,3.175 0 0 0 0.433594,4.46875 3.175,3.175 0 0 0 4.46875,-0.4336 l 7.564453,-9.18554 a 3.175,3.175 0 0 0 -0.433593,-4.468753 3.175,3.175 0 0 0 -2.324219,-0.708985 z"
       id="path9077" />
    <circle
       style="fill:#d4aa00;fill-opacity:1;stroke:#000012;stroke-width:1.05833332;stroke-linecap:round;stroke-miterlimit:4;stroke-dasharray:none;stroke-opacity:1"
       id="path5902"
       cx="76.319038"
       cy="107.94764"
       r="6.3521705" />
    <path
       style="color:#000000;fill:#fa0000;stroke-linecap:round;stroke:#0b0000;stroke-opacity:1;stroke-width:1.05833332;stroke-miterlimit:4;stroke-dasharray:none"
       d="m 44.21875,35.269531 a 3.175,3.175 0 0 0 -4.482422,0.251953 3.175,3.175 0 0 0 0.251953,4.482422 l 9.451172,8.445313 a 3.175,3.175 0 0 0 4.482422,-0.251953 3.175,3.175 0 0 0 -0.251953,-4.482422 z"
       id="path8725" />
    <circle
       style="fill:#55d400;fill-opacity:1;stroke:#000012;stroke-width:1.05833;stroke-linecap:round;stroke-miterlimit:4;stroke-dasharray:none;stroke-opacity:1"
       id="path6160"
       cx="42.103497"
       cy="37.636925"
       r="6.3499999" />
    <path
       style="color:#000000;fill:#ff0000;stroke-linecap:round;-inkscape-stroke:none;stroke:#000000;stroke-opacity:1;fill-opacity:1"
       d="m 65.175781,51.603516 a 3.175,3.175 0 0 0 -4.371094,1.033203 3.175,3.175 0 0 0 1.033204,4.36914 c 2.753057,1.701496 5.587321,3.45814 8.705078,5.017578 3.117714,1.559418 6.348592,2.838878 9.498047,4.089844 a 3.175,3.175 0 0 0 4.123046,-1.779297 3.175,3.175 0 0 0 -1.777343,-4.123047 C 79.237264,58.959971 76.167692,57.73669 73.382812,56.34375 70.597975,54.950831 67.928839,53.305012 65.175781,51.603516 Z"
       id="path7889" />
    <circle
       style="fill:#00ccff;fill-opacity:1;stroke:#000000;stroke-width:1.05833;stroke-miterlimit:4;stroke-dasharray:none;stroke-opacity:1"
       id="path2604"
       cx="71.667816"
       cy="58.147488"
       r="4.2333331" />
    <path
       style="color:#000000;fill:#ff0000;stroke-linecap:round;stroke-width:1.05833332;stroke-miterlimit:4;stroke-dasharray:none;stroke:#100000;stroke-opacity:1"
       d="m 92.160156,66.445312 a 3.175,3.175 0 0 0 -2.367187,0.552735 3.175,3.175 0 0 0 -0.730469,4.429687 c 2.025456,2.826707 3.528167,5.357776 3.597656,6.798828 0.0695,1.441296 -1.151598,3.890961 -2.902344,6.75 a 3.175,3.175 0 0 0 1.050782,4.367188 3.175,3.175 0 0 0 4.365234,-1.050781 c 1.750746,-2.85904 4.032778,-6.127035 3.828125,-10.371094 -0.204664,-4.244302 -2.753841,-7.366653 -4.779297,-10.193359 a 3.175,3.175 0 0 0 -2.0625,-1.283204 z"
       id="path8406" />
    <circle
       style="fill:#00ccff;fill-opacity:1;stroke:#000000;stroke-width:1.05833;stroke-miterlimit:4;stroke-dasharray:none;stroke-opacity:1"
       id="path2604-9"
       cx="95.325035"
       cy="77.237099"
       r="4.2333331" />
  </g>
</svg>
