<?xml version="1.0" encoding="UTF-8" standalone="no"?>
<!-- Created with Inkscape (http://www.inkscape.org/) -->

<svg
   width="512"
   height="512"
   viewBox="0 0 135.46666 135.46667"
   version="1.1"
   id="svg5163"
   inkscape:version="1.1.2 (0a00cf5339, 2022-02-04, custom)"
   sodipodi:docname="Outwards.svg"
   xmlns:inkscape="http://www.inkscape.org/namespaces/inkscape"
   xmlns:sodipodi="http://sodipodi.sourceforge.net/DTD/sodipodi-0.dtd"
   xmlns="http://www.w3.org/2000/svg"
   xmlns:svg="http://www.w3.org/2000/svg">
  <sodipodi:namedview
     id="namedview5165"
     pagecolor="#ffffff"
     bordercolor="#666666"
     borderopacity="1.0"
     inkscape:pageshadow="2"
     inkscape:pageopacity="0.0"
     inkscape:pagecheckerboard="0"
     inkscape:document-units="px"
     showgrid="false"
     units="px"
     inkscape:snap-global="true"
     inkscape:zoom="0.86992833"
     inkscape:cx="521.88207"
     inkscape:cy="176.45132"
     inkscape:window-width="1920"
     inkscape:window-height="1023"
     inkscape:window-x="0"
     inkscape:window-y="0"
     inkscape:window-maximized="1"
     inkscape:current-layer="layer1" />
  <defs
     id="defs5160">
    <inkscape:path-effect
       effect="bspline"
       id="path-effect9079"
       is_visible="true"
       lpeversion="1"
       weight="33.333333"
       steps="2"
       helper_size="0"
       apply_no_weight="true"
       apply_with_weight="true"
       only_selected="false" />
    <inkscape:path-effect
       effect="bspline"
       id="path-effect8727"
       is_visible="true"
       lpeversion="1"
       weight="33.333333"
       steps="2"
       helper_size="0"
       apply_no_weight="true"
       apply_with_weight="true"
       only_selected="false" />
    <inkscape:path-effect
       effect="bspline"
       id="path-effect8408"
       is_visible="true"
       lpeversion="1"
       weight="33.333333"
       steps="2"
       helper_size="0"
       apply_no_weight="true"
       apply_with_weight="true"
       only_selected="false" />
    <inkscape:path-effect
       effect="bspline"
       id="path-effect7891"
       is_visible="true"
       lpeversion="1"
       weight="33.333333"
       steps="2"
       helper_size="0"
       apply_no_weight="true"
       apply_with_weight="true"
       only_selected="false" />
    <inkscape:path-effect
       effect="bspline"
       id="path-effect7821"
       is_visible="true"
       lpeversion="1"
       weight="33.333333"
       steps="2"
       helper_size="0"
       apply_no_weight="true"
       apply_with_weight="true"
       only_selected="false" />
    <inkscape:path-effect
       effect="bspline"
       id="path-effect5765"
       is_visible="true"
       lpeversion="1"
       weight="33.333333"
       steps="2"
       helper_size="0"
       apply_no_weight="true"
       apply_with_weight="true"
       only_selected="false" />
    <inkscape:path-effect
       effect="bspline"
       id="path-effect5202"
       is_visible="true"
       lpeversion="1"
       weight="33.333333"
       steps="2"
       helper_size="0"
       apply_no_weight="true"
       apply_with_weight="true"
       only_selected="false" />
  </defs>
  <g
     inkscape:label="Layer 1"
     inkscape:groupmode="layer"
     id="layer1">
    <g
       id="g5728"
       style="fill:#ffffff;fill-opacity:1;stroke:#000000;stroke-opacity:1">
      <path
         style="color:#000000;fill:#ffffff;-inkscape-stroke:none;fill-opacity:1;stroke:#000000;stroke-opacity:1"
         d="M 89.792969,4.40625 85.5625,4.5527344 C 85.876422,13.547638 86.161951,22.396903 84.603516,30.314453 83.045075,38.232026 80.025897,44.914045 67.074219,53.09375 54.122544,61.273452 31.109282,70.584943 8.09375,79.857422 l 1.5820313,3.927734 C 32.691313,74.512678 55.706768,65.278219 69.333984,56.671875 82.961197,48.065533 87.06688,39.72155 88.757812,31.130859 90.448748,22.540148 90.10689,13.401153 89.792969,4.40625 Z"
         id="path5200" />
    </g>
    <path
       style="fill:#ff0000;fill-opacity:1;stroke:#000000;stroke-width:1.05833;stroke-linecap:butt;stroke-linejoin:miter;stroke-miterlimit:4;stroke-dasharray:none;stroke-opacity:1"
       d="m 111.46778,127.18473 -12.359694,5.67988 3.217584,-13.42923"
       id="path2814"
       sodipodi:nodetypes="ccc" />
    <path
       style="color:#000000;fill:#ffffff;stroke-linecap:round;-inkscape-stroke:none;fill-opacity:1;stroke:#000000;stroke-opacity:1"
       d="m 73.845703,49.193359 a 2.1166649,2.1166649 0 0 0 -1.449219,0.726563 2.1166649,2.1166649 0 0 0 0.216797,2.986328 c 8.230934,7.119161 16.614416,14.383442 27.751949,20.126953 5.56876,2.871751 11.66222,5.300256 16.41602,7.943359 4.7538,2.643104 7.86784,5.404371 8.45898,8.44336 0.59116,3.038995 -1.19824,7.778881 -4.76757,13.210938 -3.56934,5.43206 -8.70213,11.5072 -13.875,17.61719 a 2.1166649,2.1166649 0 0 0 0.24804,2.98242 2.1166649,2.1166649 0 0 0 2.98438,-0.24805 c 5.17287,-6.10998 10.38659,-12.25476 14.17969,-18.02734 3.79309,-5.772583 6.38269,-11.223637 5.38671,-16.343752 -0.99597,-5.120122 -5.43681,-8.486281 -10.55859,-11.333984 -5.12178,-2.847703 -11.22626,-5.271079 -16.5332,-8.007813 C 91.690826,63.796074 83.613746,56.822286 75.382812,49.703125 a 2.1166649,2.1166649 0 0 0 -1.537109,-0.509766 z"
       id="path5763" />
    <path
       style="color:#000000;fill:#ff0000;stroke:#310000;stroke-width:1.05833;stroke-linecap:round;stroke-miterlimit:4;stroke-dasharray:none;stroke-opacity:1"
       d="m 115.47098,109.26918 a 3.175,3.175 0 0 0 -2.14453,1.14062 l -7.56446,9.18751 a 3.175,3.175 0 0 0 0.4336,4.46875 3.175,3.175 0 0 0 4.46875,-0.4336 l 7.56445,-9.18554 a 3.175,3.175 0 0 0 -0.43359,-4.46876 3.175,3.175 0 0 0 -2.32422,-0.70898 z"
       id="path9077" />
    <circle
       style="fill:#d4aa00;fill-opacity:1;stroke:#000012;stroke-width:1.05833;stroke-linecap:round;stroke-miterlimit:4;stroke-dasharray:none;stroke-opacity:1"
       id="path5902"
       cx="108.21384"
       cy="121.61526"
       r="6.3521705" />
    <path
       style="fill:#ff2a2a;stroke:#000000;stroke-width:1.05833;stroke-linecap:butt;stroke-linejoin:miter;stroke-miterlimit:4;stroke-dasharray:none;stroke-opacity:1"
       d="M 61.510679,58.916058 77.133006,56.613236 80.696877,51.258472 83.71725,41.097559 73.998302,51.304546 Z"
       id="path6821"
       sodipodi:nodetypes="cccccc" />
    <path
       style="color:#000000;fill:#fa0000;stroke:#0b0000;stroke-width:1.05833;stroke-linecap:round;stroke-miterlimit:4;stroke-dasharray:none;stroke-opacity:1"
       d="m 76.113555,48.937149 a 3.175,3.175 0 0 0 -4.482422,0.251953 3.175,3.175 0 0 0 0.251953,4.482422 l 9.451172,8.445313 a 3.175,3.175 0 0 0 4.482422,-0.251953 3.175,3.175 0 0 0 -0.251953,-4.482422 z"
       id="path8725" />
    <circle
       style="fill:#55d400;fill-opacity:1;stroke:#000012;stroke-width:1.05833;stroke-linecap:round;stroke-miterlimit:4;stroke-dasharray:none;stroke-opacity:1"
       id="path6160"
       cx="73.998299"
       cy="51.304543"
       r="6.3499999" />
    <path
       style="color:#000000;fill:#ff0000;fill-opacity:1;stroke:#000000;stroke-linecap:round;stroke-opacity:1;-inkscape-stroke:none"
       d="m 97.070586,65.271134 a 3.175,3.175 0 0 0 -4.371094,1.033203 3.175,3.175 0 0 0 1.033204,4.36914 c 2.753057,1.701496 5.587321,3.45814 8.705074,5.017578 3.11772,1.559418 6.3486,2.838878 9.49805,4.089844 a 3.175,3.175 0 0 0 4.12305,-1.779297 3.175,3.175 0 0 0 -1.77735,-4.123047 c -3.14945,-1.250966 -6.21902,-2.474247 -9.0039,-3.867187 -2.78484,-1.392919 -5.453976,-3.038738 -8.207034,-4.740234 z"
       id="path7889" />
    <circle
       style="fill:#00ccff;fill-opacity:1;stroke:#000000;stroke-width:1.05833;stroke-miterlimit:4;stroke-dasharray:none;stroke-opacity:1"
       id="path2604"
       cx="103.56262"
       cy="71.815102"
       r="4.2333331" />
    <path
       style="color:#000000;fill:#ff0000;stroke:#100000;stroke-width:1.05833;stroke-linecap:round;stroke-miterlimit:4;stroke-dasharray:none;stroke-opacity:1"
       d="m 124.05496,80.11293 a 3.175,3.175 0 0 0 -2.36719,0.552735 3.175,3.175 0 0 0 -0.73046,4.429687 c 2.02545,2.826707 3.52816,5.357776 3.59765,6.798828 0.0695,1.441296 -1.1516,3.890961 -2.90234,6.75 a 3.175,3.175 0 0 0 1.05078,4.36719 3.175,3.175 0 0 0 4.36523,-1.05078 c 1.75075,-2.859043 4.03278,-6.127038 3.82813,-10.371097 -0.20467,-4.244302 -2.75384,-7.366653 -4.7793,-10.193359 a 3.175,3.175 0 0 0 -2.0625,-1.283204 z"
       id="path8406" />
    <circle
       style="fill:#00ccff;fill-opacity:1;stroke:#000000;stroke-width:1.05833;stroke-miterlimit:4;stroke-dasharray:none;stroke-opacity:1"
       id="path2604-9"
       cx="127.21984"
       cy="90.904716"
       r="4.2333331" />
  </g>
</svg>
