<?xml version="1.0" encoding="UTF-8" standalone="no"?>
<!-- Created with Inkscape (http://www.inkscape.org/) -->

<svg
   width="512"
   height="512"
   viewBox="0 0 135.46666 135.46667"
   version="1.1"
   id="svg9549"
   inkscape:version="1.1.2 (0a00cf5339, 2022-02-04, custom)"
   sodipodi:docname="Split.svg"
   xmlns:inkscape="http://www.inkscape.org/namespaces/inkscape"
   xmlns:sodipodi="http://sodipodi.sourceforge.net/DTD/sodipodi-0.dtd"
   xmlns="http://www.w3.org/2000/svg"
   xmlns:svg="http://www.w3.org/2000/svg">
  <sodipodi:namedview
     id="namedview9551"
     pagecolor="#ffffff"
     bordercolor="#666666"
     borderopacity="1.0"
     inkscape:pageshadow="2"
     inkscape:pageopacity="0.0"
     inkscape:pagecheckerboard="0"
     inkscape:document-units="mm"
     showgrid="false"
     units="px"
     inkscape:zoom="1.217109"
     inkscape:cx="162.68058"
     inkscape:cy="270.72349"
     inkscape:window-width="1920"
     inkscape:window-height="1023"
     inkscape:window-x="0"
     inkscape:window-y="0"
     inkscape:window-maximized="1"
     inkscape:current-layer="layer1" />
  <defs
     id="defs9546">
    <inkscape:path-effect
       effect="bspline"
       id="path-effect11459"
       is_visible="true"
       lpeversion="1"
       weight="33.333333"
       steps="2"
       helper_size="0"
       apply_no_weight="true"
       apply_with_weight="true"
       only_selected="false" />
    <inkscape:path-effect
       effect="bspline"
       id="path-effect10851"
       is_visible="true"
       lpeversion="1"
       weight="33.333333"
       steps="2"
       helper_size="0"
       apply_no_weight="true"
       apply_with_weight="true"
       only_selected="false" />
    <inkscape:path-effect
       effect="bspline"
       id="path-effect10847"
       is_visible="true"
       lpeversion="1"
       weight="33.333333"
       steps="2"
       helper_size="0"
       apply_no_weight="true"
       apply_with_weight="true"
       only_selected="false" />
    <inkscape:path-effect
       effect="bspline"
       id="path-effect10654"
       is_visible="true"
       lpeversion="1"
       weight="33.333333"
       steps="2"
       helper_size="0"
       apply_no_weight="true"
       apply_with_weight="true"
       only_selected="false" />
    <inkscape:path-effect
       effect="bspline"
       id="path-effect10404"
       is_visible="true"
       lpeversion="1"
       weight="33.333333"
       steps="2"
       helper_size="0"
       apply_no_weight="true"
       apply_with_weight="true"
       only_selected="false" />
    <inkscape:path-effect
       effect="bspline"
       id="path-effect10247"
       is_visible="true"
       lpeversion="1"
       weight="33.333333"
       steps="2"
       helper_size="0"
       apply_no_weight="true"
       apply_with_weight="true"
       only_selected="false" />
    <inkscape:path-effect
       effect="bspline"
       id="path-effect9897"
       is_visible="true"
       lpeversion="1"
       weight="33.333333"
       steps="2"
       helper_size="0"
       apply_no_weight="true"
       apply_with_weight="true"
       only_selected="false" />
    <inkscape:path-effect
       effect="bspline"
       id="path-effect9682"
       is_visible="true"
       lpeversion="1"
       weight="33.333333"
       steps="2"
       helper_size="0"
       apply_no_weight="true"
       apply_with_weight="true"
       only_selected="false" />
    <inkscape:path-effect
       effect="bspline"
       id="path-effect9588"
       is_visible="true"
       lpeversion="1"
       weight="33.333333"
       steps="2"
       helper_size="0"
       apply_no_weight="true"
       apply_with_weight="true"
       only_selected="false" />
  </defs>
  <g
     inkscape:label="Layer 1"
     inkscape:groupmode="layer"
     id="layer1">
    <path
       style="fill:#808080;stroke:none;stroke-width:0.264583px;stroke-linecap:butt;stroke-linejoin:miter;stroke-opacity:1;fill-opacity:1"
       d="M 5.9734272,5.277958 130.01038,6.092309 108.12527,34.188307 99.475654,63.648454 102.22101,86.849391 114.95172,111.52363 128.07683,130.18871 5.4562845,127.32107 8.1375662,113.79855 21.459296,93.084823 32.821999,74.011686 36.467473,51.751626 24.908612,26.888868 Z"
       id="path9932" />
    <path
       style="fill:#f90000;fill-opacity:1;stroke:#000000;stroke-width:1.05833;stroke-linecap:butt;stroke-linejoin:miter;stroke-miterlimit:4;stroke-dasharray:none;stroke-opacity:1"
       d="m 30.076642,78.784004 c 0.127948,5.43041 0.255887,10.860442 -2.1314,14.766809 -2.387287,3.906366 -7.28971,6.28908 -12.192347,8.671897"
       id="path10402"
       inkscape:path-effect="#path-effect10404"
       inkscape:original-d="m 30.076642,78.784004 c 0.128206,5.430404 0.256145,10.860436 0.383824,16.290419 -4.902357,2.383074 -9.80478,4.765787 -14.707571,7.148287"
       sodipodi:nodetypes="ccc" />
    <path
       style="color:#000000;fill:#c0c0c0;stroke-linecap:round;-inkscape-stroke:none;stroke:#000000;stroke-opacity:1;fill-opacity:1"
       d="M 6.1230469,3.1660156 A 2.1166649,2.1166649 0 0 0 4.5859375,3.6796875 2.1166649,2.1166649 0 0 0 4.375,6.6660156 C 19.250652,23.810393 33.654475,40.85266 34.232422,56.240234 34.810371,71.627877 21.713559,87.421384 14.035156,99.431641 6.3567605,111.44189 4.7964367,119.43716 3.3769531,126.92773 A 2.1166649,2.1166649 0 0 0 5.0625,129.40039 2.1166649,2.1166649 0 0 0 7.5351562,127.71484 C 8.9546398,120.22427 10.234075,113.23793 17.603516,101.71094 24.972948,90.183961 39.131546,73.884669 38.462891,56.082031 37.794233,38.279322 22.447918,21.035003 7.5722656,3.890625 A 2.1166649,2.1166649 0 0 0 6.1230469,3.1660156 Z"
       id="path9586" />
    <path
       style="fill:#f90000;stroke:#000000;stroke-width:1.05833333;stroke-linecap:butt;stroke-linejoin:miter;stroke-opacity:1;fill-opacity:1;stroke-miterlimit:4;stroke-dasharray:none"
       d="m 99.475654,63.648454 c -2.827461,-2.831424 -5.655131,-5.663058 -4.825165,-8.761593 0.829966,-3.098536 5.317722,-6.463432 9.805531,-9.828368"
       id="path10652"
       inkscape:path-effect="#path-effect10654"
       inkscape:original-d="m 99.475654,63.648454 c -2.827461,-2.831424 -5.655131,-5.663058 -8.483177,-8.495067 4.4882,-3.364766 8.975956,-6.729662 13.463543,-10.094894"
       sodipodi:nodetypes="ccc" />
    <path
       style="color:#000000;fill:#c0c0c0;stroke-linecap:round;-inkscape-stroke:none;stroke:#000000;stroke-opacity:1;fill-opacity:1"
       d="m 129.89258,3.9785156 a 2.1166649,2.1166649 0 0 0 -1.46094,0.703125 C 119.2428,14.961661 109.84425,25.442596 103.98438,39.552734 c -5.859871,14.110118 -8.136003,31.662164 -3.70899,47.767578 4.42701,16.105388 15.38129,30.217138 26.125,44.160158 a 2.1166649,2.1166649 0 0 0 2.96875,0.38476 2.1166649,2.1166649 0 0 0 0.38477,-2.96875 C 119.0102,114.95347 108.47519,101.1796 104.35742,86.199219 100.23966,71.218871 102.36394,54.48834 107.89258,41.175781 113.42121,27.863245 122.39905,17.781973 131.58789,7.5019531 a 2.1166649,2.1166649 0 0 0 -0.16602,-2.9882812 2.1166649,2.1166649 0 0 0 -1.52929,-0.5351563 z"
       id="path9680" />
    <path
       style="color:#000000;fill:#ffffff;-inkscape-stroke:none;stroke:#000000;stroke-opacity:1"
       d="m 86.263672,50.662109 c -5.292935,-0.07711 -10.663526,1.516395 -15.205078,6.13086 -4.541569,4.614481 -8.174589,11.79489 -11.798828,18.705078 -3.62424,6.910188 -7.277173,13.545661 -10.78711,16.683594 -3.509904,3.1379 -6.984899,3.450886 -11.228515,2.40625 -4.243617,-1.044636 -9.021181,-3.670914 -13.902344,-6.402344 l -2.066406,3.693359 c 4.881164,2.731431 9.86646,5.567185 14.957031,6.820313 5.090571,1.253127 10.522005,0.697935 15.0625,-3.361328 4.540462,-4.059237 8.081205,-10.948662 11.71289,-17.873047 3.631686,-6.924385 7.314423,-13.886968 11.06836,-17.701172 3.753953,-3.814222 7.65763,-4.934249 12.126953,-4.869141 4.469323,0.06511 9.442809,1.484795 14.568355,2.984375 l 1.18946,-4.0625 c -5.125552,-1.49958 -10.404333,-3.07719 -15.697268,-3.154297 z"
       id="path10245" />
    <path
       style="color:#000000;fill:#ff0000;stroke-linecap:round;stroke:#100000;stroke-opacity:1;stroke-width:1.05833333;stroke-miterlimit:4;stroke-dasharray:none"
       d="m 23.75,87.203125 a 3.175,3.175 0 0 0 -4.269531,1.386719 3.175,3.175 0 0 0 1.386718,4.271484 l 12.009766,6.121094 a 3.175,3.175 0 0 0 4.269531,-1.388672 3.175,3.175 0 0 0 -1.386718,-4.269531 z"
       id="path10845" />
    <ellipse
       style="fill:#55d400;fill-opacity:1;stroke:#000000;stroke-width:1.03221;stroke-miterlimit:4;stroke-dasharray:none;stroke-opacity:1"
       id="path2473-3"
       cx="23.288404"
       cy="90.611778"
       rx="5.8338928"
       ry="5.8338943" />
    <path
       style="color:#000000;fill:#ff0000;stroke-linecap:round;stroke:#100000;stroke-opacity:1;stroke-width:1.05833333;stroke-miterlimit:4;stroke-dasharray:none"
       d="m 89.042969,49.339844 a 3.175,3.175 0 0 0 -3.875,2.265625 3.175,3.175 0 0 0 2.265625,3.876953 l 13.128906,3.4375 a 3.175,3.175 0 0 0 3.875,-2.267578 3.175,3.175 0 0 0 -2.26758,-3.875 z"
       id="path10849" />
    <ellipse
       style="fill:#55d400;fill-opacity:1;stroke:#000000;stroke-width:1.03221;stroke-miterlimit:4;stroke-dasharray:none;stroke-opacity:1"
       id="path2473-3-1"
       cx="100.34396"
       cy="55.132877"
       rx="5.8338928"
       ry="5.8338943" />
    <path
       style="color:#000000;fill:#ff0000;stroke:#170000;stroke-width:1.05833;stroke-linecap:round;stroke-miterlimit:4;stroke-dasharray:none;stroke-opacity:1"
       d="m 64.883203,64.548308 c -0.810254,0.229874 -1.495973,0.772266 -1.90625,1.507812 l -7.775781,14.658724 c -0.855019,1.531168 -0.306708,3.46556 1.224609,4.320312 1.531682,0.854704 3.46624,0.305472 4.320313,-1.226562 L 68.521875,69.14987 c 0.854703,-1.531682 0.305471,-3.46624 -1.226563,-4.320312 -0.734999,-0.409685 -1.602571,-0.510844 -2.412109,-0.28125 z"
       id="path11457"
       sodipodi:nodetypes="cccccccc" />
    <circle
       style="fill:#00ccff;fill-opacity:1;stroke:#000000;stroke-width:1.05833;stroke-miterlimit:4;stroke-dasharray:none;stroke-opacity:1"
       id="path2604"
       cx="62.242641"
       cy="74.712822"
       r="4.2333331" />
  </g>
</svg>
