<?xml version="1.0" encoding="UTF-8" standalone="no"?>
<!-- Created with Inkscape (http://www.inkscape.org/) -->

<svg
   width="512"
   height="512"
   viewBox="0 0 135.46666 135.46667"
   version="1.1"
   id="svg5"
   inkscape:version="1.1.2 (0a00cf5339, 2022-02-04, custom)"
   sodipodi:docname="Tongue.svg"
   xmlns:inkscape="http://www.inkscape.org/namespaces/inkscape"
   xmlns:sodipodi="http://sodipodi.sourceforge.net/DTD/sodipodi-0.dtd"
   xmlns="http://www.w3.org/2000/svg"
   xmlns:svg="http://www.w3.org/2000/svg">
  <sodipodi:namedview
     id="namedview7"
     pagecolor="#505050"
     bordercolor="#ffffff"
     borderopacity="1"
     inkscape:pageshadow="0"
     inkscape:pageopacity="0"
     inkscape:pagecheckerboard="1"
     inkscape:document-units="px"
     showgrid="false"
     units="px"
     width="512px"
     inkscape:snap-object-midpoints="true"
     inkscape:snap-global="false"
     inkscape:zoom="1.2219958"
     inkscape:cx="289.69003"
     inkscape:cy="186.98919"
     inkscape:window-width="1920"
     inkscape:window-height="1023"
     inkscape:window-x="0"
     inkscape:window-y="0"
     inkscape:window-maximized="1"
     inkscape:current-layer="layer1" />
  <defs
     id="defs2">
    <inkscape:path-effect
       effect="bspline"
       id="path-effect1606"
       is_visible="true"
       lpeversion="1"
       weight="33.333333"
       steps="2"
       helper_size="0"
       apply_no_weight="true"
       apply_with_weight="true"
       only_selected="false" />
    <inkscape:path-effect
       effect="bspline"
       id="path-effect1140"
       is_visible="true"
       lpeversion="1"
       weight="33.333333"
       steps="2"
       helper_size="0"
       apply_no_weight="true"
       apply_with_weight="true"
       only_selected="false" />
    <inkscape:path-effect
       effect="bspline"
       id="path-effect1136"
       is_visible="true"
       lpeversion="1"
       weight="33.333333"
       steps="2"
       helper_size="0"
       apply_no_weight="true"
       apply_with_weight="true"
       only_selected="false" />
    <inkscape:path-effect
       effect="bspline"
       id="path-effect1042"
       is_visible="true"
       lpeversion="1"
       weight="33.333333"
       steps="2"
       helper_size="0"
       apply_no_weight="true"
       apply_with_weight="true"
       only_selected="false" />
    <inkscape:path-effect
       effect="bspline"
       id="path-effect859"
       is_visible="true"
       lpeversion="1"
       weight="33.333333"
       steps="2"
       helper_size="0"
       apply_no_weight="true"
       apply_with_weight="true"
       only_selected="false" />
  </defs>
  <g
     inkscape:label="Layer 1"
     inkscape:groupmode="layer"
     id="layer1">
    <path
       style="fill:#808080;stroke:#000000;stroke-width:0.264583px;stroke-linecap:butt;stroke-linejoin:miter;stroke-opacity:1;fill-opacity:1"
       d="M 21.030382,47.172115 63.872173,25.349764 91.334994,25.039595 115.78046,42.947558"
       id="path2278" />
    <path
       style="fill:none;stroke:#808080;stroke-width:1.05833332;stroke-linecap:butt;stroke-linejoin:miter;stroke-opacity:1;stroke-miterlimit:4;stroke-dasharray:none"
       d="m 21.030382,47.172115 c 31.583612,-1.408197 63.16697,-2.816383 94.750078,-4.224557"
       id="path1604"
       inkscape:path-effect="#path-effect1606"
       inkscape:original-d="m 21.030382,47.172115 c 31.583624,-1.40792 63.166982,-2.816106 94.750078,-4.224557" />
    <path
       style="fill:#808080;fill-opacity:1;stroke:#000000;stroke-width:4.23333;stroke-linecap:butt;stroke-linejoin:miter;stroke-miterlimit:4;stroke-dasharray:none;stroke-opacity:1"
       d="m 21.030382,47.172116 c 5.156261,5.53097 10.312264,11.061664 13.620527,22.21411 3.308263,11.152446 4.768956,27.92596 16.682123,36.153324 11.913167,8.22735 34.277647,7.90852 44.958479,-2.71137 10.680829,-10.619894 9.677849,-31.540287 10.978759,-43.237417 1.30091,-11.697129 4.90554,-14.170162 8.51019,-16.643206"
       id="path1130" />
    <path
       style="color:#000000;fill:#ffffff;-inkscape-stroke:none;stroke:#000000;stroke-opacity:1"
       d="m 114.58203,41.203125 c -1.80232,1.236521 -3.96489,2.722559 -5.70898,5.474609 -1.7441,2.752051 -3.03465,6.633963 -3.70703,12.679688 -0.67239,6.04573 -0.74352,14.11452 -1.95899,21.93164 -1.21547,7.817121 -3.584079,15.242463 -8.408202,20.039068 -4.824114,4.79658 -12.598784,7.44759 -20.619141,7.80859 -8.020356,0.36099 -16.208097,-1.58344 -21.644531,-5.33789 C 41.662339,96.289942 40.104201,80.329491 36.679687,68.785156 33.255162,57.24078 27.734381,51.25948 22.578125,45.728516 l -3.095703,2.886718 c 5.156256,5.530965 9.946678,10.612554 13.138672,21.373047 3.192006,10.760535 4.556273,28.347146 17.509765,37.292969 6.476722,4.47289 15.427915,6.48054 24.238282,6.08398 8.810366,-0.39655 17.557355,-3.21186 23.414062,-9.03515 5.856697,-5.823285 8.328947,-14.168311 9.607427,-22.390627 1.27847,-8.222316 1.35389,-16.463846 1.98242,-22.115234 0.62852,-5.651392 1.79156,-8.853855 3.07617,-10.88086 1.2846,-2.027004 2.72697,-3.013479 4.5293,-4.25 z"
       id="path1040" />
    <path
       style="fill:#ff0000;stroke:#000000;stroke-width:1.05833;stroke-linecap:butt;stroke-linejoin:miter;stroke-miterlimit:4;stroke-dasharray:none;stroke-opacity:1"
       d="M 13.079424,51.882982 28.509566,56.640235 28.148182,42.43638"
       id="path2458" />
    <path
       style="fill:#ff0000;stroke:#000000;stroke-width:1.05833332;stroke-linecap:butt;stroke-linejoin:miter;stroke-opacity:1;stroke-miterlimit:4;stroke-dasharray:none;fill-opacity:1"
       d="m 107.32332,36.005963 2.4894,13.952384 13.30097,-0.2227"
       id="path2606" />
    <g
       id="path2778"
       style="stroke:#000000;stroke-opacity:1;fill:#ff0000;fill-opacity:1;stroke-width:1.05833332;stroke-miterlimit:4;stroke-dasharray:none">
      <path
         style="color:#000000;fill:#ff0000;stroke-width:1.05833332;stroke-linecap:round;stroke:#000000;stroke-opacity:1;fill-opacity:1;stroke-miterlimit:4;stroke-dasharray:none"
         d="m 39.812571,88.839261 2.636141,7.769738 5.148559,6.315001"
         id="path2848" />
      <path
         style="color:#000000;fill:#ff0000;stroke-linecap:round;stroke:#000000;stroke-opacity:1;fill-opacity:1;stroke-width:1.05833332;stroke-miterlimit:4;stroke-dasharray:none"
         d="m 38.792969,85.832031 a 3.175,3.175 0 0 0 -1.986328,4.027344 l 2.820312,8.3125 5.509766,6.757815 a 3.175,3.175 0 0 0 4.466797,0.45508 3.175,3.175 0 0 0 0.455078,-4.4668 l -4.78711,-5.871095 -2.453125,-7.228516 a 3.175,3.175 0 0 0 -4.02539,-1.986328 z"
         id="path2850" />
    </g>
    <circle
       style="fill:#00ccff;fill-opacity:1;stroke:#000000;stroke-width:1.05833;stroke-miterlimit:4;stroke-dasharray:none;stroke-opacity:1"
       id="path2604-5"
       cx="42.532726"
       cy="96.065201"
       r="4.2333331" />
    <path
       style="color:#000000;fill:#ff0000;stroke:#000000;stroke-width:1.05833;stroke-linecap:round;stroke-miterlimit:4;stroke-dasharray:none;stroke-opacity:1"
       d="m 105.15638,84.436589 c -1.715,-0.361881 -3.39881,0.734435 -3.76172,2.449219 l -1.638801,6.565364 -4.254167,5.902605 c -1.063627,1.393243 -0.796973,3.384843 0.595703,4.449223 1.39409,1.06452 3.387264,0.79689 4.451175,-0.59766 l 5.12331,-7.039324 1.93567,-7.967708 c 0.36179,-1.715621 -0.73559,-3.399725 -2.45117,-3.761719 z"
       id="path3031"
       sodipodi:nodetypes="scccccccs" />
    <circle
       style="fill:#00ccff;fill-opacity:1;stroke:#000000;stroke-width:1.05833;stroke-miterlimit:4;stroke-dasharray:none;stroke-opacity:1"
       id="path2604-5-6"
       cx="102.39228"
       cy="94.566147"
       r="4.2333331" />
    <path
       style="color:#000000;fill:#ff0000;stroke-linecap:round;-inkscape-stroke:none;stroke:#060000;stroke-opacity:1"
       d="m 64.746094,107.36914 a 3.175,3.175 0 0 0 -3.546875,2.75195 3.175,3.175 0 0 0 2.751953,3.54688 l 8.390625,1.05859 8.441406,-0.85937 a 3.175,3.175 0 0 0 2.837891,-3.47852 3.175,3.175 0 0 0 -3.480469,-2.83789 l -7.722656,0.78516 z"
       id="path3367" />
    <circle
       style="fill:#00ccff;fill-opacity:1;stroke:#000000;stroke-width:1.05833;stroke-miterlimit:4;stroke-dasharray:none;stroke-opacity:1"
       id="path2604-5-7"
       cx="72.368713"
       cy="111.32155"
       r="4.2333331" />
    <path
       style="color:#000000;fill:#c0c0c0;stroke-linecap:round;-inkscape-stroke:none;stroke:#000000;stroke-opacity:1;fill-opacity:1"
       d="M 78.541016,22.052734 C 56.961239,21.84655 31.070031,37.896836 5.1972656,53.626953 a 2.1166649,2.1166649 0 0 0 -0.7089844,2.908203 2.1166649,2.1166649 0 0 0 2.9082032,0.708985 C 33.26925,41.514023 59.123706,26.10196 78.501953,26.287109 97.880267,26.47226 112.54039,41.932239 127.625,58.052734 a 2.1166649,2.1166649 0 0 0 2.99023,0.09961 2.1166649,2.1166649 0 0 0 0.0996,-2.992188 C 115.63024,39.039662 100.12073,22.258918 78.541016,22.052734 Z"
       id="path857" />
    <circle
       style="fill:#55d400;fill-opacity:1;stroke:#000012;stroke-width:1.05833;stroke-linecap:round;stroke-miterlimit:4;stroke-dasharray:none;stroke-opacity:1"
       id="path6160"
       cx="21.030382"
       cy="47.172115"
       r="6.3499999" />
    <circle
       style="fill:#55d400;fill-opacity:1;stroke:#000012;stroke-width:1.05833;stroke-linecap:round;stroke-miterlimit:4;stroke-dasharray:none;stroke-opacity:1"
       id="path6160-3"
       cx="115.78046"
       cy="42.947559"
       r="6.3499999" />
  </g>
</svg>
